# xmcd CD database file
#
# Track frame offsets:
#	150
#	13908
#	34888
#	60689
#	76421
#	89493
#	110014
#	126564
#	158141
#	184706
#
# Disc length: 2671 seconds
#
# Revision: 5
# Processed by: cddbd v1.5.1PL2 Copyright (c) Steve Scherf et al.
# Submitted via: CDex 1.51
#
DISCID=880a6d0a
DTITLE=JOHNNY COPELAND - Live In Australia 1990 - Further On Up the Road
DYEAR=1993
DGENRE=Blues
TTITLE0=Further On Up the Road
TTITLE1=That's All Right
TTITLE2=Cut Off My Right Arm
TTITLE3=Excuses
TTITLE4=Wella Wella Baby
TTITLE5=Love Her With a Feeling
TTITLE6=Look on Yonder Wall
TTITLE7=Ain't Nobody's Business
TTITLE8=Nobody But You
TTITLE9=Learned my Lesson
EXTD=Updated to correct a few errors. YEAR: 1993
EXTT0=
EXTT1=
EXTT2=
EXTT3=
EXTT4=
EXTT5=
EXTT6=
EXTT7=
EXTT8=
EXTT9=
PLAYORDER=
